<?xml version="1.0" standalone="no"?>
<!DOCTYPE svg PUBLIC "-//W3C//DTD SVG 20010904//EN"
 "http://www.w3.org/TR/2001/REC-SVG-20010904/DTD/svg10.dtd">
<svg version="1.0" xmlns="http://www.w3.org/2000/svg"
 width="457.000000pt" height="457.000000pt" viewBox="0 0 457.000000 457.000000"
 preserveAspectRatio="xMidYMid meet">
<metadata>
Created by potrace 1.11, written by Peter Selinger 2001-2013
</metadata>
<g transform="translate(0.000000,457.000000) scale(0.100000,-0.100000)"
fill="#000000" stroke="none">
<path d="M2021 4554 c-536 -67 -1011 -304 -1376 -686 -119 -124 -194 -218
-271 -338 -51 -81 -64 -103 -134 -244 -109 -219 -188 -485 -215 -723 -3 -27
-8 -64 -10 -83 -11 -87 -5 -353 11 -470 3 -25 8 -59 10 -77 15 -116 62 -294
116 -438 202 -545 617 -1003 1138 -1256 156 -75 418 -165 535 -183 38 -6 111
-18 185 -31 80 -14 436 -14 544 0 163 21 170 23 314 60 682 179 1241 663 1519
1316 69 161 138 403 159 559 27 203 24 511 -6 690 -5 30 -12 70 -15 89 -3 19
-8 37 -10 41 -2 3 -6 18 -9 33 -10 56 -48 184 -82 276 -262 702 -870 1241
-1599 1416 -55 14 -147 32 -205 41 -136 21 -459 26 -599 8z m34 -176 c4 -40 9
-81 10 -90 2 -9 7 -49 10 -89 4 -40 8 -80 10 -90 2 -10 6 -53 10 -96 3 -43 8
-85 10 -93 2 -8 6 -44 10 -80 3 -36 8 -83 10 -105 2 -22 9 -85 15 -140 6 -55
13 -116 15 -135 2 -19 7 -60 10 -90 3 -30 8 -71 10 -90 6 -47 13 -122 20 -195
3 -33 8 -71 10 -85 2 -14 7 -56 11 -95 3 -38 8 -79 10 -90 2 -11 6 -50 9 -87
4 -51 3 -68 -7 -69 -7 -1 -28 -2 -47 -3 l-34 -1 -135 400 c-345 1024 -432
1289 -425 1296 21 21 434 113 454 103 4 -2 10 -37 14 -76z m550 68 c119 -16
366 -78 389 -97 7 -6 -37 -161 -64 -224 -5 -11 -113 -335 -240 -719 -127 -384
-234 -706 -239 -714 -5 -10 -27 -17 -56 -20 l-47 -4 6 70 c4 38 8 78 10 88 2
11 7 55 11 99 4 44 8 94 11 111 2 16 6 59 9 94 3 35 7 76 9 90 4 24 9 72 21
190 10 106 16 155 20 180 2 14 7 59 10 100 4 41 8 86 10 100 2 14 7 54 10 90
5 59 8 85 20 190 2 19 7 62 10 95 3 33 8 78 10 100 2 22 7 67 10 100 8 71 14
97 23 91 4 -2 30 -7 57 -10z m-1320 -553 l142 -238 -49 -12 c-98 -23 -180 -75
-227 -143 -14 -19 -26 -37 -27 -39 -2 -2 -20 14 -40 35 -42 45 -198 213 -272
294 l-51 55 47 43 c114 104 320 258 331 246 2 -2 68 -111 146 -241z m2350 108
c39 -30 75 -60 81 -66 6 -5 30 -27 53 -48 22 -21 41 -41 41 -46 0 -4 -12 -21
-26 -37 -31 -34 -230 -247 -259 -278 -11 -12 -67 -73 -125 -136 -58 -63 -116
-127 -130 -141 -14 -14 -53 -56 -87 -92 -35 -37 -64 -67 -66 -67 -3 0 -1 82 6
208 2 28 -1 52 -5 52 -4 0 -8 -15 -9 -32 -1 -18 -3 -51 -5 -73 -2 -22 -5 -73
-7 -113 l-4 -74 -69 -75 c-38 -41 -73 -80 -79 -86 -39 -46 -42 -37 -18 51 13
48 25 96 28 107 10 48 34 173 39 208 8 53 17 66 74 114 50 42 79 90 93 151 6
27 3 38 -12 53 -10 10 -19 21 -19 23 0 3 63 111 140 241 77 130 140 241 140
246 0 5 4 9 9 9 5 0 12 9 16 20 6 19 10 17 68 -22 34 -22 94 -66 132 -97z
m-2080 -546 c59 -28 100 -63 150 -127 l33 -41 -16 -46 c-14 -40 -16 -43 -26
-26 -23 42 -118 126 -171 151 -61 29 -85 26 -85 -10 0 -39 40 -78 84 -81 71
-6 106 -45 101 -116 -12 -168 -23 -190 -85 -159 -49 25 -130 31 -199 14 -76
-18 -78 -18 -84 14 -2 15 -15 50 -27 78 -27 61 -22 93 19 135 31 30 102 50
109 30 9 -26 36 -41 73 -41 21 0 39 3 39 7 0 4 -14 22 -32 40 -24 24 -32 42
-32 70 -1 37 -2 38 -34 35 -75 -6 -148 -67 -193 -162 l-22 -45 -9 30 c-22 79
16 178 88 228 86 60 222 70 319 22z m-906 -122 c97 -68 192 -135 211 -149 88
-63 206 -146 219 -154 12 -6 7 -17 -22 -51 -62 -71 -46 -143 40 -185 40 -19
149 -22 166 -5 6 6 2 33 -11 70 l-21 61 42 -21 c75 -37 93 -71 102 -185 8
-101 13 -122 35 -134 27 -14 48 11 55 68 14 100 44 168 101 225 38 38 61 45
94 27 22 -12 42 -67 42 -116 0 -19 3 -34 7 -34 14 0 50 45 66 82 26 63 20 105
-31 203 -33 66 -45 99 -42 124 3 33 3 33 43 -36 22 -37 45 -77 51 -88 6 -11
64 -107 128 -214 64 -106 115 -195 114 -196 -2 -1 -37 -15 -78 -30 -41 -16
-97 -41 -123 -57 -26 -15 -50 -28 -52 -28 -15 0 -183 -129 -248 -190 -85 -79
-175 -207 -214 -304 -31 -75 -42 -199 -23 -248 25 -63 104 -167 214 -282 143
-152 199 -290 173 -430 -11 -65 -39 -119 -96 -186 -84 -99 -150 -150 -263
-200 -43 -19 -78 -38 -78 -41 0 -13 120 -27 205 -24 110 4 142 9 222 35 215
69 319 177 331 340 8 119 -33 226 -144 377 -128 173 -132 218 -32 333 82 93
107 173 101 319 -8 198 47 270 251 326 44 12 122 39 173 58 51 20 109 39 130
43 l38 6 -33 -34 c-37 -40 -39 -49 -13 -73 19 -17 24 -15 137 65 64 45 133 87
153 92 20 6 56 19 81 30 48 22 229 101 396 173 274 118 302 136 273 171 -11
14 -26 15 -84 10 -38 -3 -94 -12 -122 -19 -29 -8 -53 -11 -53 -7 0 10 846 610
859 610 21 0 192 -333 203 -394 2 -16 -21 -30 -142 -83 -80 -35 -158 -70 -175
-77 -16 -7 -111 -48 -210 -91 -99 -42 -200 -86 -223 -97 -24 -11 -45 -18 -47
-16 -1 2 -10 18 -19 36 -20 39 -24 39 -36 6 -7 -18 -7 -31 1 -40 6 -7 8 -18 4
-25 -6 -8 -10 -7 -16 2 -7 11 -9 11 -9 -2 0 -9 -15 -22 -32 -30 -18 -7 -165
-70 -327 -141 -162 -71 -298 -125 -302 -121 -3 5 -12 25 -19 46 -6 20 -15 37
-19 37 -5 0 -14 -21 -21 -47 -7 -27 -14 -55 -16 -64 -3 -9 -39 -31 -82 -49
-42 -19 -81 -37 -85 -40 -8 -7 74 3 121 15 22 5 23 4 17 -27 -4 -18 -16 -64
-27 -102 -11 -38 -21 -76 -23 -85 -10 -54 -161 -593 -181 -648 -8 -23 -22 -44
-29 -47 -22 -8 -18 -50 8 -73 61 -57 218 -96 372 -94 98 1 169 17 245 56 50
26 130 91 130 106 0 5 -9 22 -19 37 -11 15 -77 180 -146 367 -70 187 -142 382
-162 433 -19 52 -32 96 -29 99 5 5 52 15 141 28 17 3 41 7 55 10 14 3 41 8 60
11 19 3 42 7 50 9 8 3 33 7 56 10 22 3 72 11 111 18 l71 13 -8 -25 c-59 -201
-207 -656 -225 -691 -28 -55 13 -90 156 -130 62 -18 100 -21 229 -20 204 1
248 8 341 56 92 46 98 69 38 134 -37 40 -50 69 -116 260 -41 118 -92 262 -113
320 -49 134 -50 142 -25 145 19 2 87 13 130 21 36 7 149 26 179 30 24 3 123
21 221 40 10 2 37 6 60 10 22 3 58 9 80 14 22 5 61 11 87 14 l46 6 9 -77 c10
-95 10 -354 0 -443 -8 -69 -11 -89 -33 -220 -24 -134 -100 -352 -179 -515
-171 -350 -424 -639 -745 -854 -296 -198 -626 -318 -980 -358 -83 -10 -373
-10 -467 0 -324 32 -697 167 -968 350 -125 85 -342 264 -331 274 2 2 32 6 67
8 85 6 107 10 219 45 151 46 285 152 342 270 26 56 29 151 5 197 -16 29 -112
154 -153 198 -65 68 -182 242 -184 273 0 4 -5 25 -11 46 -10 39 -13 132 -5
171 32 157 108 284 268 448 48 51 88 97 88 103 0 35 -130 62 -286 58 -184 -3
-272 -20 -378 -70 -125 -59 -168 -142 -206 -394 -12 -74 -23 -148 -26 -165 -3
-16 -7 -41 -9 -55 -15 -121 -88 -358 -143 -465 l-28 -57 -41 103 c-82 208
-121 360 -152 594 -12 88 -7 464 7 530 6 28 13 68 16 90 20 134 81 337 148
490 53 121 159 306 171 298 5 -3 89 -62 186 -130z m2004 -538 c-3 -9 -8 -14
-10 -11 -3 3 -2 9 2 15 9 16 15 13 8 -4z m857 -96 c0 -5 -4 -9 -10 -9 -5 0
-10 7 -10 16 0 8 5 12 10 9 6 -3 10 -10 10 -16z m125 -366 c20 -60 72 -211
116 -336 43 -126 76 -233 73 -239 -3 -5 -13 -7 -22 -3 -9 3 -64 8 -122 11 -58
3 -119 7 -137 10 -61 9 -61 9 -57 271 2 131 3 270 4 310 0 70 0 72 28 76 82
12 76 17 117 -100z m-165 -43 c-1 -69 -4 -172 -6 -230 -1 -58 -4 -144 -4 -192
-1 -49 -6 -90 -10 -93 -5 -3 -28 -8 -52 -11 -24 -3 -74 -14 -112 -24 -38 -11
-72 -17 -76 -15 -10 6 14 108 88 380 33 121 65 239 71 262 9 34 16 42 39 46
67 11 65 15 62 -123z m-706 78 c-9 -15 -22 -8 -19 10 2 9 4 19 4 22 1 3 5 -2
10 -10 6 -8 7 -18 5 -22z m57 -136 c15 -37 37 -94 49 -127 12 -33 26 -69 30
-80 12 -29 55 -141 81 -210 12 -33 26 -71 32 -85 6 -14 11 -29 13 -35 1 -5 25
-68 53 -139 28 -71 49 -131 47 -134 -3 -2 -35 3 -73 11 -149 34 -303 42 -403
21 -36 -8 -69 -14 -73 -14 -9 0 -7 12 23 160 12 58 24 114 26 125 2 11 7 34
11 50 4 17 7 32 8 35 5 24 16 80 20 100 3 14 7 39 10 55 3 25 33 196 49 285 2
14 5 31 5 38 1 7 14 12 34 12 30 0 33 -4 58 -68z m-1996 -174 c3 -7 7 -60 9
-118 4 -116 3 -110 57 -230 21 -47 41 -101 45 -120 9 -49 7 -129 -7 -187 -6
-26 -12 -55 -14 -63 -24 -115 -199 -530 -223 -530 -9 0 -147 167 -183 222
l-27 40 30 65 c16 37 52 145 80 242 27 97 72 228 99 292 61 145 82 225 81 309
0 35 4 70 10 77 13 17 37 17 43 1z m1820 -117 c-9 -45 -18 -94 -21 -109 -3
-15 -9 -40 -14 -57 -5 -16 -12 -43 -15 -60 -11 -61 -18 -95 -29 -142 -3 -10
-11 -46 -19 -80 -18 -74 -21 -79 -47 -86 -16 -4 -20 -1 -16 11 2 9 21 78 41
152 57 210 130 459 133 455 2 -2 -4 -40 -13 -84z m1213 -230 c19 -10 21 -15
11 -27 -26 -31 -104 -58 -229 -78 -111 -18 -380 -1 -380 24 0 12 65 36 150 55
3 1 21 5 40 10 135 32 363 41 408 16z m-763 -306 c22 -4 42 -9 45 -12 11 -11
-21 -40 -72 -66 -169 -82 -412 -70 -478 24 l-21 28 21 11 c12 6 40 15 63 20
47 9 379 5 442 -5z"/>
<path d="M1375 3151 c-22 -10 -46 -25 -54 -34 -12 -15 -10 -17 20 -18 19 0 45
-2 59 -4 35 -6 110 15 110 30 0 13 -58 45 -82 45 -7 0 -31 -9 -53 -19z"/>
</g>
</svg>
